<?xml version="1.0" standalone="no"?>
<!DOCTYPE svg PUBLIC "-//W3C//DTD SVG 20010904//EN"
 "http://www.w3.org/TR/2001/REC-SVG-20010904/DTD/svg10.dtd">
<svg version="1.0" xmlns="http://www.w3.org/2000/svg"
 width="1229.000000pt" height="1229.000000pt" viewBox="0 0 1229.000000 1229.000000"
 preserveAspectRatio="xMidYMid meet">
<metadata>
Created by potrace 1.14, written by Peter Selinger 2001-2017
</metadata>
<g transform="translate(0.000000,1229.000000) scale(0.100000,-0.100000)"
fill="#000000" stroke="none">
<path d="M1072 9175 c0 -157 -7 -164 -84 -88 l-58 57 -79 -78 -78 -78 54 -54
c39 -38 53 -59 49 -72 -6 -16 -18 -18 -119 -17 -61 1 -117 0 -122 -2 -6 -2
-10 -16 -9 -31 1 -15 3 -64 3 -109 l1 -82 88 1 c162 0 162 0 162 -20 0 -10
-24 -42 -54 -71 l-54 -53 75 -74 c41 -41 78 -74 83 -74 5 0 26 18 47 41 47 50
71 65 86 50 6 -6 10 -56 9 -126 l-1 -115 112 0 113 0 -1 113 c-1 61 1 118 3
125 8 23 34 12 83 -38 27 -27 53 -50 57 -50 4 0 41 34 82 75 l74 75 -56 57
c-39 39 -55 62 -49 71 6 10 40 13 129 13 l122 -1 0 113 0 112 -122 0 c-151 0
-158 9 -77 91 l53 54 -74 75 c-41 41 -77 75 -80 75 -3 0 -29 -23 -57 -51 -79
-77 -88 -70 -89 71 -1 63 -2 118 -3 123 0 4 -50 7 -110 7 l-108 0 -1 -115z
m195 -371 c27 -35 33 -63 19 -104 -23 -68 -112 -96 -169 -54 -45 33 -55 99
-24 146 42 62 128 67 174 12z"/>
<path d="M6418 9270 c0 -3 -2 -1136 -3 -2517 l-1 -2513 2518 0 2518 0 0 2518
0 2518 -2515 -1 c-1383 0 -2516 -2 -2517 -5z"/>
<path d="M1868 9189 c-6 -4 -10 -179 -10 -469 l0 -463 143 -143 144 -144 -88
-87 -87 -88 -143 143 -142 142 -468 0 -467 0 -1 -35 c0 -19 0 -62 0 -95 0 -33
0 -67 0 -75 1 -13 55 -15 421 -15 l420 0 315 -315 c173 -173 317 -315 320
-315 2 0 38 35 80 77 l75 77 -126 127 -127 127 88 87 88 87 127 -127 127 -126
76 76 c42 42 77 78 77 81 0 2 -142 146 -315 319 l-315 315 1 416 c0 229 -2
418 -5 421 -7 7 -196 9 -208 2z"/>
<path d="M2328 9192 l-26 -3 1 -332 2 -332 107 0 c63 0 109 4 111 10 2 6 3
156 3 334 l-1 324 -85 1 c-47 1 -97 0 -112 -2z"/>
<path d="M749 7604 c-1 -19 -1 -45 -1 -59 0 -14 0 -49 1 -78 l1 -52 328 1
c180 1 329 2 332 3 4 1 5 188 1 213 0 3 -149 6 -331 6 l-330 0 -1 -34z"/>
<path d="M2718 7495 c-2 -2 -16 -6 -31 -9 -46 -8 -114 -47 -157 -89 -132 -131
-129 -352 6 -477 98 -90 225 -117 348 -75 38 13 42 13 65 -8 76 -67 131 -121
131 -129 0 -4 -27 -41 -60 -82 -33 -41 -60 -77 -60 -80 0 -3 -12 -22 -26 -43
-23 -33 -120 -220 -125 -241 -2 -11 -6 -23 -23 -77 -114 -361 -87 -737 76
-1075 151 -313 441 -584 763 -712 192 -77 347 -108 550 -112 379 -5 730 124
1009 374 75 67 86 79 150 154 184 217 295 478 331 776 12 97 6 323 -10 380 -2
8 -6 31 -9 50 -16 111 -95 322 -161 433 -19 32 -35 62 -35 67 0 5 -3 10 -7 12
-5 2 -26 29 -47 60 -77 114 -247 275 -383 365 -150 99 -363 185 -548 219 -141
27 -462 25 -557 -2 -9 -3 -25 -6 -35 -8 -156 -30 -391 -133 -527 -230 -40 -29
-77 -56 -83 -59 -10 -6 -22 3 -128 101 l-56 52 12 37 c17 51 15 129 -5 195
-37 128 -165 227 -299 233 -36 2 -67 1 -69 0z m132 -264 c65 -77 5 -191 -93
-178 -102 14 -134 145 -49 200 42 27 110 17 142 -22z m1574 -294 l59 -12 -25
-17 c-97 -64 -150 -162 -150 -280 0 -268 316 -414 526 -244 82 68 132 191 116
288 l-7 36 36 -26 c164 -123 333 -370 396 -577 l12 -41 -96 3 c-165 4 -289
-44 -400 -156 -288 -288 -161 -772 232 -889 l59 -17 -77 -83 c-226 -241 -493
-365 -860 -396 -33 -3 -37 4 -17 37 51 88 72 171 73 288 0 69 -26 205 -42 214
-5 4 -9 13 -9 21 0 17 -65 114 -107 160 -198 216 -552 226 -765 21 -74 -72
-113 -133 -155 -246 -9 -23 -13 -20 -65 60 -30 46 -63 102 -73 123 -94 208
-123 334 -123 541 0 104 7 168 33 300 7 32 79 221 94 245 8 11 22 2 72 -48
171 -171 402 -210 625 -105 78 36 191 148 231 228 85 170 79 371 -16 525 l-30
48 57 9 c77 12 323 6 396 -10z m-652 -119 c55 -61 81 -137 75 -218 -6 -79 -8
-84 -34 -135 -50 -95 -189 -174 -281 -159 -80 12 -97 17 -130 36 -66 36 -129
107 -146 165 -15 48 229 250 396 328 29 14 59 25 67 25 8 0 32 -19 53 -42z
m909 -94 c17 -8 37 -30 45 -50 42 -99 -74 -191 -160 -127 -49 36 -58 88 -26
141 31 51 85 65 141 36z m713 -908 l37 -16 -2 -85 c-3 -146 -32 -285 -86 -421
-28 -72 -39 -77 -130 -58 -75 15 -107 32 -159 82 -63 62 -88 122 -88 217 0 94
24 155 86 217 89 89 222 114 342 64z m-1563 -650 c98 -29 162 -85 205 -181 63
-137 20 -309 -101 -401 l-35 -26 -82 27 c-144 47 -329 144 -369 191 -8 10 -13
40 -12 83 4 207 203 363 394 307z"/>
<path d="M4093 6060 c-229 -75 -301 -348 -138 -528 20 -23 62 -54 93 -69 49
-24 69 -28 142 -28 104 0 158 22 228 92 139 139 118 375 -45 491 -75 53 -191
71 -280 42z m147 -215 c97 -50 59 -198 -50 -198 -102 0 -147 125 -67 187 37
29 75 33 117 11z"/>
<path d="M11021 3469 c-99 -13 -131 -78 -125 -251 5 -159 41 -206 157 -204 92
2 143 45 149 127 3 27 -1 32 -22 36 -39 6 -70 -5 -70 -26 0 -43 -82 -70 -110
-37 -12 16 -22 173 -13 220 12 62 94 71 118 13 11 -26 19 -31 49 -33 49 -2 60
19 37 72 -32 70 -81 95 -170 83z"/>
<path d="M11610 3472 c-48 -6 -80 -25 -101 -59 -25 -41 -27 -104 -4 -139 16
-24 102 -74 129 -74 8 0 26 -10 40 -22 23 -21 25 -26 13 -48 -18 -35 -78 -41
-101 -9 -8 12 -13 26 -11 29 9 15 -24 31 -57 28 -40 -4 -46 -22 -23 -81 21
-55 59 -78 134 -83 48 -3 64 0 92 19 41 28 63 69 62 120 -1 52 -26 85 -81 108
-26 11 -55 24 -64 29 -10 6 -24 10 -32 10 -31 0 -36 55 -8 77 24 18 92 3 92
-21 1 -31 44 -53 83 -40 33 10 6 101 -38 130 -29 19 -87 31 -125 26z"/>
<path d="M635 3458 c-12 -33 -98 -301 -116 -362 -22 -73 -18 -85 24 -80 12 1
27 3 34 3 6 1 17 20 25 44 l13 42 68 0 67 0 11 -35 c7 -19 19 -39 28 -44 24
-14 61 -13 70 1 6 12 -76 283 -120 390 -21 51 -23 53 -60 53 -23 0 -42 -5 -44
-12z m84 -254 c1 -9 -25 -10 -71 -5 -6 1 7 48 28 101 4 10 13 -3 24 -35 10
-27 19 -55 19 -61z"/>
<path d="M1144 3459 c-3 -6 -7 -107 -8 -225 -2 -171 0 -214 11 -215 17 -1 61
-1 71 0 4 1 7 57 7 126 0 69 0 125 1 125 1 0 34 -55 74 -122 40 -68 74 -124
75 -126 4 -6 64 -9 74 -3 6 4 9 85 8 226 -2 204 -3 220 -20 223 -10 2 -29 1
-42 -2 -22 -6 -23 -9 -24 -128 -1 -67 -3 -124 -5 -125 -2 -2 -11 13 -21 34
-10 21 -21 40 -25 43 -4 3 -15 21 -25 40 -10 19 -33 59 -52 88 -29 42 -40 52
-63 52 -16 0 -32 -5 -36 -11z"/>
<path d="M1754 3457 c-2 -7 -3 -109 -2 -227 l3 -214 30 1 c17 0 35 1 41 2 7 1
11 39 12 114 0 61 1 118 1 126 1 8 36 -44 79 -115 73 -122 79 -129 109 -129
17 0 34 3 38 7 8 7 14 402 7 431 -5 20 -65 24 -78 5 -5 -7 -9 -66 -9 -130 0
-65 -1 -118 -2 -118 -1 0 -21 33 -44 73 -69 118 -103 172 -114 179 -17 12 -65
9 -71 -5z"/>
<path d="M2482 3458 c-5 -7 -35 -94 -66 -193 -32 -99 -62 -191 -67 -204 -13
-32 3 -49 43 -45 39 5 40 7 53 52 11 37 11 37 65 37 79 1 86 -2 99 -46 12 -38
17 -41 66 -41 32 0 35 3 29 30 -10 43 -124 383 -135 403 -11 22 -71 26 -87 7z
m68 -214 l18 -51 -34 2 c-18 0 -36 4 -39 7 -4 3 2 32 11 64 9 33 19 52 22 44
3 -8 13 -38 22 -66z"/>
<path d="M2957 3457 c-1 -5 -1 -24 1 -43 4 -33 5 -34 52 -34 l47 0 -1 -172
c-1 -95 2 -178 6 -185 8 -10 66 -8 78 4 3 2 6 77 7 166 1 89 2 168 2 175 1 7
9 12 19 11 55 -5 70 1 74 30 8 56 1 59 -147 58 -74 0 -136 -5 -138 -10z"/>
<path d="M3524 3462 c-7 -4 -10 -91 -10 -226 l1 -219 115 1 c63 0 122 1 131 1
20 1 28 26 19 61 -6 24 -9 25 -85 26 -44 1 -83 2 -87 3 -5 1 -8 23 -8 50 l0
49 81 -1 c44 0 85 5 90 10 6 6 9 26 7 44 l-3 34 -75 2 c-41 0 -80 1 -85 2 -6
1 -11 19 -11 41 l0 40 88 0 89 0 -3 43 -3 42 -121 2 c-66 1 -125 -2 -130 -5z"/>
<path d="M4435 3459 c-9 -13 -10 -422 -2 -436 6 -10 159 -9 204 1 35 8 79 54
89 92 9 35 -3 72 -32 101 l-25 25 26 25 c34 35 41 68 24 117 -21 60 -60 78
-179 84 -72 3 -100 1 -105 -9z m186 -95 c16 -14 17 -59 3 -73 -8 -8 -104 -10
-105 -3 -5 48 -4 88 3 93 16 10 82 -1 99 -17z m3 -179 c26 -27 6 -73 -34 -76
-8 -1 -22 -2 -30 -3 -33 -3 -46 12 -44 51 1 21 2 39 3 41 4 10 92 -1 105 -13z"/>
<path d="M5017 3453 c-3 -10 -6 -111 -7 -225 -1 -166 1 -208 12 -209 7 -1 26
-2 41 -3 15 -2 30 0 32 4 7 12 8 427 1 439 -12 18 -74 14 -79 -6z"/>
<path d="M5375 3462 c-3 -3 -5 -23 -5 -44 l0 -38 50 0 50 0 -1 -173 c-1 -96 1
-179 4 -184 6 -10 60 -9 78 2 5 3 8 29 7 58 0 29 0 107 1 174 l1 122 47 3 c46
3 47 3 49 40 1 27 -3 39 -15 42 -23 6 -259 5 -266 -2z"/>
<path d="M5934 3458 c-12 -19 -11 -438 1 -439 55 -5 67 -5 72 4 3 6 6 42 6 81
-1 39 3 76 7 81 5 6 33 8 64 7 l55 -4 -2 -84 c-2 -69 1 -84 13 -85 8 0 25 -2
38 -3 13 -2 26 4 30 13 4 9 8 111 7 226 l0 210 -40 0 -40 0 -3 -92 -3 -93 -59
0 c-33 0 -60 3 -61 8 -1 4 -2 41 -4 82 -1 41 -3 81 -4 88 -1 16 -67 16 -77 0z"/>
<path d="M6524 3455 c-3 -8 -7 -109 -8 -225 -2 -205 -1 -210 19 -211 56 -2
238 2 244 6 13 8 11 75 -2 76 -7 1 -43 3 -82 4 -38 1 -75 3 -80 4 -6 0 -10 22
-10 49 0 53 -9 49 123 51 l52 1 0 43 0 44 -82 -1 -83 0 -3 42 -3 41 87 3 88 3
2 37 c1 20 -4 39 -10 41 -6 2 -64 4 -129 5 -94 1 -119 -2 -123 -13z"/>
<path d="M7077 3464 c-4 -4 -7 -106 -7 -226 0 -187 2 -218 15 -219 8 -1 21 -2
28 -3 29 -5 42 13 43 61 4 129 -2 124 50 47 70 -103 71 -104 126 -104 26 0 48
4 48 8 0 5 -27 44 -59 88 l-59 78 39 24 c86 51 95 168 18 223 -28 20 -47 23
-134 26 -56 2 -104 0 -108 -3z m184 -100 c20 -18 24 -41 10 -63 -12 -18 -111
-26 -112 -8 -3 31 -1 67 3 79 8 19 75 14 99 -8z"/>
<path d="M7762 3458 c-5 -7 -39 -105 -76 -217 -70 -220 -71 -233 -13 -224 39
6 40 6 52 51 11 37 11 37 65 37 79 1 86 -2 99 -46 9 -29 17 -39 34 -40 27 -2
61 2 65 6 4 4 -108 352 -131 408 -14 32 -20 37 -50 37 -19 0 -39 -6 -45 -12z
m78 -253 c0 -6 -16 -11 -35 -11 -40 0 -41 4 -18 75 l16 51 19 -52 c10 -29 18
-57 18 -63z"/>
<path d="M8263 3454 c-6 -14 -10 -378 -4 -425 2 -11 34 -16 61 -9 23 6 25 10
26 80 1 41 2 81 3 88 1 8 20 12 59 12 97 0 153 54 147 142 -6 93 -43 119 -186
126 -88 4 -98 3 -106 -14z m190 -95 c35 -43 10 -74 -62 -75 l-47 0 2 45 c1 25
3 49 3 52 1 3 20 5 44 3 28 -2 48 -10 60 -25z"/>
<path d="M8854 3462 c-17 -11 -19 -442 -2 -443 12 -1 234 0 251 1 13 0 8 80
-5 81 -7 1 -47 2 -88 3 l-75 1 -3 52 -3 51 81 1 c45 0 84 3 88 5 11 6 15 76 5
77 -4 1 -44 3 -88 4 l-80 2 -3 41 -3 42 91 0 91 0 -3 43 -3 42 -120 2 c-66 1
-125 -1 -131 -5z"/>
<path d="M9394 3455 c-4 -8 -4 -86 -2 -173 5 -171 16 -217 62 -247 49 -32 155
-31 194 3 47 41 55 78 56 242 1 85 -1 163 -3 173 -3 14 -12 17 -45 15 l-41 -3
-1 -151 c-1 -187 -9 -214 -65 -214 -58 0 -66 19 -69 163 -4 221 0 202 -43 205
-27 2 -39 -1 -43 -13z"/>
<path d="M9967 3457 c-1 -5 -1 -24 1 -43 4 -30 8 -34 36 -35 17 -1 38 -2 46
-3 13 -1 15 -28 14 -178 0 -155 2 -178 15 -179 9 0 23 -2 32 -4 39 -7 43 7 44
187 l1 173 47 3 47 3 0 43 0 43 -140 0 c-77 0 -141 -5 -143 -10z"/>
<path d="M10526 3451 c-7 -30 -6 -431 1 -432 5 0 19 -2 33 -3 51 -6 50 -9 50
230 l0 225 -40 -3 c-26 -1 -41 -7 -44 -17z"/>
</g>
</svg>
