<?xml version="1.0" standalone="no"?>
<!DOCTYPE svg PUBLIC "-//W3C//DTD SVG 20010904//EN"
 "http://www.w3.org/TR/2001/REC-SVG-20010904/DTD/svg10.dtd">
<svg version="1.0" xmlns="http://www.w3.org/2000/svg"
 width="1280.000000pt" height="1280.000000pt" viewBox="0 0 1280.000000 1280.000000"
 preserveAspectRatio="xMidYMid meet">
<metadata>
Created by potrace 1.14, written by Peter Selinger 2001-2017
</metadata>
<g transform="translate(0.000000,1280.000000) scale(0.100000,-0.100000)"
fill="#000000" stroke="none">
<path d="M2039 12111 c0 -36 -1 -121 -1 -189 1 -123 -7 -152 -41 -152 -7 0
-50 38 -97 85 -47 47 -88 85 -92 85 -11 0 -248 -238 -248 -249 0 -5 10 -18 23
-28 12 -11 51 -49 86 -86 59 -61 64 -68 53 -91 -11 -24 -11 -24 -169 -24 -87
0 -174 -1 -194 -1 l-37 -1 2 -177 1 -178 185 -1 c102 -1 191 -2 197 -3 7 -1
15 -12 19 -26 5 -20 -7 -37 -80 -110 -47 -48 -86 -90 -86 -94 0 -3 55 -61 123
-129 l123 -122 88 89 c84 84 90 88 117 79 l28 -10 0 -166 c-1 -92 0 -179 0
-194 l1 -28 178 0 178 0 0 191 c-1 116 3 194 9 199 28 23 48 11 133 -72 l88
-88 127 127 128 127 -92 92 c-90 90 -91 92 -75 116 l16 24 190 -1 190 -1 0
178 c0 135 -3 178 -12 179 -7 0 -93 1 -191 1 -177 0 -178 0 -194 24 -16 24
-15 26 75 117 l92 92 -122 123 c-68 67 -126 122 -131 122 -4 0 -46 -38 -92
-85 -73 -74 -87 -85 -110 -79 -14 3 -25 11 -26 18 -1 6 -2 94 -2 196 l-2 185
-177 1 -178 2 -1 -67z m260 -670 c57 -30 94 -89 94 -154 0 -59 -12 -87 -51
-130 -31 -33 -103 -56 -152 -49 -89 13 -157 101 -148 192 12 125 145 198 257
141z"/>
<path d="M3311 12020 c-4 -3 -7 -343 -7 -755 l1 -750 228 -228 c125 -125 227
-230 227 -233 0 -10 -266 -274 -276 -274 -5 0 -111 102 -235 226 l-227 226
-738 0 c-407 0 -746 -1 -755 -1 -13 -1 -15 -24 -14 -168 0 -93 3 -173 7 -178
4 -7 238 -10 677 -10 l671 0 507 -507 c280 -280 511 -508 514 -508 9 0 249
239 249 248 0 4 -91 98 -201 208 l-202 202 141 142 141 141 205 -205 206 -206
125 127 126 127 -510 511 -510 510 0 673 c0 371 -2 676 -5 679 -7 7 -336 10
-345 3z"/>
<path d="M4024 12021 c-2 -2 -4 -244 -4 -538 l0 -533 178 0 179 0 0 535 0 535
-26 0 c-264 4 -323 4 -327 1z"/>
<path d="M1518 9511 c0 -3 -1 -84 -2 -178 l-1 -173 538 0 537 0 -2 178 -3 177
-532 1 c-293 1 -534 -2 -535 -5z"/>
<path d="M4677 9283 c-306 -52 -507 -353 -437 -655 20 -88 70 -178 139 -251
152 -161 397 -212 599 -126 l43 19 77 -73 c42 -41 101 -96 131 -124 l54 -51
-55 -63 c-170 -196 -304 -433 -423 -750 -69 -182 -118 -488 -119 -734 0 -182
9 -279 45 -465 105 -549 429 -1063 884 -1406 235 -176 485 -303 770 -389 49
-15 99 -29 110 -31 11 -2 40 -8 65 -14 240 -53 538 -66 807 -35 227 25 509
109 738 219 622 299 1082 846 1260 1501 59 215 79 371 79 605 0 196 -12 324
-44 470 -6 25 -12 56 -15 69 -11 57 -60 214 -97 311 -265 682 -865 1222 -1576
1416 -51 14 -101 27 -113 29 -11 2 -28 6 -37 9 -9 3 -33 7 -52 10 -19 3 -44 7
-55 10 -24 4 -118 16 -183 22 -69 7 -358 7 -422 0 -471 -51 -895 -216 -1243
-484 l-59 -45 -51 50 c-29 28 -92 88 -140 134 l-88 84 16 45 c24 64 28 211 9
285 -26 100 -73 184 -144 255 -129 129 -296 183 -473 153z m157 -367 c108 -45
145 -179 76 -272 -70 -94 -213 -94 -286 2 -25 33 -29 46 -29 104 0 58 4 71 29
104 50 66 138 92 210 62z m2401 -500 c39 -3 86 -8 105 -11 19 -3 53 -7 75 -10
21 -3 57 -10 78 -16 l39 -10 -44 -28 c-342 -218 -316 -729 47 -907 341 -167
740 73 750 451 1 39 -2 85 -6 103 -4 17 -5 32 -3 32 11 0 150 -124 226 -202
218 -221 381 -496 473 -796 l13 -43 -56 7 c-485 62 -912 -248 -987 -718 -43
-272 45 -547 240 -741 119 -119 249 -192 423 -237 l43 -11 -43 -52 c-343 -413
-864 -679 -1398 -712 -52 -4 -101 -8 -107 -10 -18 -6 -18 -7 31 92 42 83 81
192 92 258 15 85 12 277 -6 359 -85 388 -374 662 -760 722 -59 9 -201 4 -274
-10 -269 -52 -490 -219 -618 -466 -47 -91 -68 -145 -68 -174 0 -16 -2 -17 -17
-5 -29 25 -151 217 -206 327 -261 521 -268 1146 -20 1675 42 89 48 97 60 80
131 -179 357 -317 573 -348 50 -8 224 -8 255 -1 176 39 266 76 368 150 98 70
171 146 229 238 95 148 132 278 132 463 1 187 -42 339 -133 475 -28 41 -29 45
-12 52 28 10 77 17 176 24 50 4 91 7 92 8 4 3 177 -2 238 -8z m-869 -198 c79
-83 114 -146 134 -243 12 -56 15 -161 6 -200 -52 -226 -225 -379 -449 -399
-212 -19 -422 112 -500 311 l-16 42 87 88 c127 127 198 186 356 293 63 43 295
160 316 160 9 0 38 -24 66 -52z m1484 -169 c47 -29 68 -55 80 -98 15 -53 12
-76 -11 -126 -25 -52 -60 -81 -115 -93 -44 -9 -47 -9 -90 2 -63 15 -124 97
-124 166 0 29 21 84 43 111 46 59 152 77 217 38z m1060 -1434 c27 -7 71 -23
98 -35 l48 -22 -1 -111 c-4 -222 -31 -387 -101 -595 -53 -158 -78 -212 -102
-213 -150 -10 -290 37 -389 130 -103 97 -153 205 -159 341 -7 191 78 351 242
450 102 61 253 84 364 55z m-2433 -1075 c114 -26 248 -129 310 -240 88 -156
93 -351 13 -511 -40 -80 -74 -123 -143 -179 l-59 -48 -56 15 c-74 19 -158 47
-257 88 -182 75 -421 221 -433 265 -4 14 -7 64 -6 112 3 248 182 462 424 507
52 10 139 6 207 -9z"/>
<path d="M6990 6999 c-117 -16 -253 -87 -322 -170 -125 -147 -164 -345 -103
-518 71 -203 258 -340 474 -346 136 -4 246 33 349 116 225 184 250 536 53 751
-116 127 -284 189 -451 167z m141 -360 c52 -20 99 -95 99 -157 0 -94 -82 -172
-180 -172 -94 0 -177 96 -165 191 16 121 128 184 246 138z"/>
<path d="M1008 3425 c-2 -2 -30 -4 -63 -6 -33 -1 -67 -6 -77 -10 -18 -9 -54
-79 -62 -119 -2 -14 -21 -72 -40 -130 -20 -58 -52 -159 -72 -224 -19 -66 -42
-138 -50 -160 -21 -57 -60 -174 -72 -216 -6 -19 -20 -60 -31 -90 -12 -30 -28
-77 -36 -105 -7 -27 -34 -115 -59 -195 -24 -79 -42 -148 -40 -151 2 -4 0 -9
-4 -11 -11 -4 -52 -138 -52 -170 0 -45 38 -59 159 -59 130 1 164 17 181 83 7
24 18 63 25 88 8 25 21 70 29 102 l16 56 247 -2 247 -3 46 -131 c45 -131 75
-181 107 -183 10 -1 52 -3 94 -5 42 -1 80 -4 85 -5 24 -7 74 14 80 34 11 32 8
46 -51 224 -30 89 -56 172 -59 185 -3 13 -16 56 -30 97 -14 41 -35 110 -47
155 -11 45 -24 88 -29 98 -5 9 -34 92 -65 185 -31 92 -79 231 -106 308 -130
358 -127 353 -211 359 -32 2 -58 2 -60 1z m28 -637 c9 -31 21 -55 25 -53 4 3
5 -4 2 -14 -3 -11 2 -32 11 -48 15 -27 74 -197 81 -231 3 -15 -11 -17 -144
-14 -80 2 -147 5 -149 7 -2 2 22 79 53 173 30 93 61 195 67 226 11 52 13 55
24 34 6 -13 20 -49 30 -80z"/>
<path d="M7603 3420 c-81 -8 -94 -26 -143 -200 -12 -41 -32 -104 -45 -140 -29
-81 -55 -165 -55 -180 0 -6 -15 -52 -34 -103 -57 -154 -273 -829 -296 -926
-19 -75 10 -92 160 -92 93 0 145 14 161 43 6 11 27 79 48 151 l37 132 238 0
c131 0 242 -3 248 -6 11 -7 36 -71 74 -190 31 -100 51 -118 140 -124 168 -12
214 -2 214 50 0 13 -22 91 -49 172 -26 81 -67 209 -90 283 -150 487 -351 1054
-390 1100 -25 30 -31 32 -96 34 -39 0 -93 -1 -122 -4z m124 -679 c105 -295
107 -302 92 -312 -8 -5 -20 -7 -27 -4 -8 3 -67 5 -133 5 -92 0 -119 3 -119 13
0 8 24 85 53 173 29 87 59 186 67 218 8 33 16 53 18 46 3 -7 25 -69 49 -139z"/>
<path d="M2689 3403 c-16 -7 -30 -18 -30 -25 -2 -24 -7 -601 -9 -1086 -1 -322
2 -487 9 -496 6 -7 30 -13 53 -14 180 -9 215 -9 234 5 22 16 20 -17 23 573 l2
375 25 -50 c29 -58 102 -183 119 -205 7 -8 25 -40 41 -70 15 -30 45 -81 66
-113 21 -32 38 -60 38 -63 0 -2 16 -27 35 -54 19 -27 35 -52 35 -54 0 -2 18
-34 41 -71 45 -74 68 -114 117 -197 18 -31 39 -61 46 -67 7 -6 66 -12 131 -14
101 -3 121 -1 136 14 15 15 17 55 19 400 7 924 5 1197 -8 1211 -9 9 -48 13
-123 15 -117 1 -163 -8 -174 -35 -6 -16 -13 -376 -14 -762 l-1 -154 -46 74
c-25 41 -55 93 -66 115 -11 22 -37 63 -59 91 -21 28 -58 89 -82 135 -71 136
-128 234 -222 379 -33 52 -66 107 -72 122 -9 19 -21 28 -50 33 -56 9 -180 2
-214 -12z"/>
<path d="M4944 3413 c-50 -7 -67 -33 -65 -100 2 -68 2 -217 -3 -955 -3 -501
-2 -548 13 -562 12 -11 48 -16 141 -19 109 -3 125 -2 142 15 10 10 18 24 18
31 1 6 2 213 3 459 1 247 3 448 3 448 1 0 18 -33 39 -72 20 -40 40 -75 44 -78
4 -3 14 -18 23 -35 31 -61 133 -230 140 -233 4 -2 8 -7 8 -12 0 -12 61 -110
83 -134 9 -11 17 -23 17 -28 0 -14 190 -325 209 -343 15 -13 42 -17 123 -19
120 -2 158 6 159 37 7 190 4 357 -5 357 -7 0 -8 3 -1 8 11 7 17 331 18 910 1
264 -1 294 -17 310 -26 26 -229 29 -272 3 l-30 -18 -3 -199 c-1 -110 -3 -315
-4 -456 -1 -142 -4 -258 -7 -258 -3 0 -13 15 -21 33 -28 56 -131 231 -159 267
-15 19 -50 79 -79 133 -28 54 -88 159 -134 233 -45 73 -96 157 -114 186 -59
98 -51 93 -149 94 -49 1 -103 0 -120 -3z"/>
<path d="M9268 3398 c-15 -15 -18 -37 -18 -141 0 -175 -10 -167 196 -167 149
0 164 -2 165 -17 1 -29 -2 -543 -6 -901 -4 -340 -1 -374 34 -387 21 -8 194 -7
229 1 15 4 34 13 43 21 18 15 19 61 23 910 0 199 4 364 7 368 4 3 74 6 157 6
194 0 188 -6 186 168 -1 100 -5 126 -18 139 -15 15 -63 17 -499 17 -446 0
-483 -1 -499 -17z"/>
<path d="M11298 3404 c-16 -8 -28 -20 -29 -27 -2 -57 -7 -666 -9 -1071 -1
-359 2 -502 10 -510 8 -8 143 -11 472 -11 l461 0 16 25 c11 17 17 54 19 128 4
122 -1 148 -31 158 -12 4 -157 8 -322 9 l-300 2 0 184 0 183 290 2 c160 0 300
4 312 8 25 8 31 28 33 116 1 36 3 86 4 113 3 80 11 78 -326 82 -161 2 -296 4
-300 4 -5 1 -8 66 -8 146 l0 145 43 1 c23 1 160 2 304 3 221 1 265 3 278 16
11 12 16 45 19 138 3 103 1 125 -13 143 -16 20 -27 20 -456 24 -370 3 -444 1
-467 -11z"/>
<path d="M8920 1382 c-19 -2 -39 -7 -44 -12 -5 -5 -8 -69 -6 -142 6 -206 2
-370 -9 -400 -14 -36 -51 -59 -98 -60 -53 -1 -81 19 -95 67 -6 22 -12 146 -14
275 -1 129 -3 243 -3 253 -1 14 -11 17 -60 17 -88 0 -88 -1 -85 -182 4 -276 6
-312 20 -382 26 -128 87 -184 212 -192 163 -10 257 60 279 208 9 55 8 511 -1
533 -5 14 -46 21 -96 17z"/>
<path d="M11167 1379 c-144 -23 -195 -140 -184 -419 10 -250 61 -327 226 -335
128 -7 208 31 252 117 22 43 38 147 23 149 -45 7 -126 4 -133 -5 -5 -6 -13
-26 -18 -45 -12 -46 -49 -72 -102 -73 -52 -1 -86 28 -96 80 -4 21 -7 97 -6
170 1 181 20 222 103 222 50 0 81 -21 97 -65 8 -22 16 -42 18 -44 1 -2 29 -5
62 -7 73 -3 86 9 77 67 -23 145 -143 216 -319 188z"/>
<path d="M12135 1380 c-97 -17 -150 -66 -174 -164 -32 -130 38 -220 214 -276
58 -18 113 -50 117 -69 3 -9 1 -31 -4 -49 -11 -43 -53 -62 -111 -51 -46 8 -63
26 -77 80 -11 41 -38 53 -102 48 -50 -4 -58 -15 -52 -67 8 -70 52 -141 109
-177 44 -27 56 -30 134 -29 47 0 102 6 123 12 76 27 130 115 130 213 0 107
-41 152 -190 209 -124 47 -158 74 -148 115 11 43 41 65 90 65 52 0 92 -27 101
-70 4 -17 14 -34 24 -39 19 -11 100 -9 119 3 31 19 -8 145 -59 193 -52 47
-150 68 -244 53z"/>
<path d="M366 1364 c-14 -13 -16 -58 -16 -355 0 -212 4 -348 10 -359 9 -18 23
-19 153 -19 88 1 159 6 187 15 111 33 176 160 131 256 -24 52 -39 71 -68 87
l-23 12 36 31 c70 61 86 136 49 224 -25 60 -48 80 -130 109 -11 4 -86 9 -167
11 -124 4 -149 2 -162 -12z m270 -135 c18 -5 36 -20 43 -35 16 -36 14 -89 -5
-105 -22 -18 -173 -24 -175 -7 -4 30 -5 144 -2 149 4 10 105 8 139 -2z m32
-316 c20 -17 26 -36 23 -76 -2 -30 -60 -57 -121 -57 -30 0 -60 4 -65 8 -6 4
-11 37 -12 75 l-1 67 78 0 c60 0 83 -4 98 -17z"/>
<path d="M1334 1370 c-21 -8 -21 -12 -20 -372 l1 -363 58 -5 c32 -3 63 -2 69
1 12 7 24 683 14 725 -5 17 -14 21 -53 22 -27 0 -57 -3 -69 -8z"/>
<path d="M1917 1372 c-15 -3 -17 -13 -15 -70 l3 -67 78 -3 c51 -2 77 -7 78
-15 1 -7 2 -140 3 -297 l1 -285 58 -3 c80 -4 86 3 86 96 -1 42 -1 172 0 289
l1 212 78 3 77 3 3 68 c3 58 1 67 -15 68 -40 4 -419 4 -436 1z"/>
<path d="M2827 1366 c-9 -9 -12 -99 -12 -372 l0 -359 68 -3 c37 -2 68 1 68 5
1 4 3 68 4 141 1 72 5 135 9 139 3 4 37 6 74 5 37 0 79 -1 94 -1 l27 -1 3
-142 3 -143 68 -3 c37 -2 67 -2 68 0 1 2 3 164 6 361 3 253 1 362 -7 372 -12
15 -98 19 -120 5 -12 -7 -15 -36 -16 -132 -1 -68 -2 -133 -3 -145 -1 -22 -4
-23 -100 -23 l-99 0 -1 146 c0 81 -3 150 -6 153 -12 12 -115 9 -128 -3z"/>
<path d="M3799 1370 c-9 -6 -13 -95 -14 -369 -3 -327 -1 -361 14 -365 9 -3
105 -5 214 -5 223 1 217 -1 217 81 0 55 -10 70 -46 68 -16 -1 -80 -2 -141 -1
l-113 1 0 85 0 85 136 -1 c74 -1 138 2 142 5 9 10 19 115 11 127 -4 6 -59 11
-146 12 l-140 2 1 65 1 65 143 3 c78 1 142 6 143 10 8 75 7 122 -3 128 -16 10
-403 13 -419 4z"/>
<path d="M4705 1364 c-20 -20 -19 -708 0 -724 14 -12 91 -11 115 1 13 6 15 32
15 143 0 75 1 136 2 136 1 0 43 -58 93 -130 50 -71 100 -136 110 -143 12 -8
45 -13 87 -13 83 1 91 17 41 79 -50 62 -161 218 -157 220 2 2 20 10 39 19 114
51 162 159 126 281 -35 115 -86 138 -314 142 -112 2 -146 0 -157 -11z m288
-138 c46 -21 55 -107 16 -139 -28 -23 -169 -23 -170 -1 0 8 0 34 0 59 0 103
-7 94 69 91 37 -1 75 -6 85 -10z"/>
<path d="M5830 1360 c-11 -11 -20 -26 -20 -32 0 -7 -32 -110 -71 -228 -38
-118 -72 -222 -74 -230 -3 -8 -16 -53 -30 -100 -35 -114 -37 -123 -22 -132 16
-10 109 -10 126 1 7 5 21 37 31 72 l17 64 112 1 112 2 15 -36 c8 -20 16 -43
17 -52 7 -42 24 -54 84 -58 82 -6 87 3 55 103 -88 276 -184 558 -202 598 l-22
47 -54 0 c-41 0 -59 -5 -74 -20z m100 -318 c15 -42 30 -86 33 -97 6 -19 3 -20
-54 -18 -34 1 -63 4 -66 6 -2 3 8 48 24 100 15 53 30 94 32 91 3 -2 17 -39 31
-82z"/>
<path d="M6665 1366 c-19 -13 -20 -32 -20 -363 0 -192 3 -354 8 -360 11 -16
91 -17 118 -3 17 10 19 23 19 149 l0 138 94 5 c105 6 157 26 206 80 55 60 65
173 23 257 -22 46 -34 57 -81 79 -50 23 -71 26 -202 29 -113 2 -151 0 -165
-11z m302 -162 c35 -44 29 -104 -13 -123 -14 -6 -56 -11 -95 -11 l-70 0 2 78
c1 42 4 81 7 86 2 4 36 6 75 3 63 -4 73 -7 94 -33z"/>
<path d="M7628 1373 c-20 -5 -19 15 -22 -476 -1 -164 2 -252 9 -257 15 -12
407 -9 423 3 7 6 12 33 12 68 0 53 -2 59 -24 65 -13 3 -32 5 -42 4 -11 -1 -67
-2 -126 -1 l-108 1 0 84 0 84 137 1 c76 1 141 5 145 9 8 8 14 120 6 127 -3 3
-67 7 -143 8 l-139 3 -1 67 -2 67 143 0 c161 0 152 -4 153 82 0 26 -5 51 -12
55 -12 7 -379 13 -409 6z"/>
<path d="M9461 1357 c-6 -17 -7 -33 -2 -109 1 -16 12 -18 82 -18 l80 0 -3
-287 c-1 -159 1 -294 5 -300 9 -15 105 -17 126 -4 12 8 15 58 17 288 1 153 3
284 3 291 1 8 22 12 70 12 79 0 85 4 87 70 2 78 12 75 -236 75 -209 0 -223 -1
-229 -18z"/>
<path d="M10381 1366 c-7 -8 -12 -145 -13 -369 -2 -290 0 -358 10 -362 8 -3
40 -5 73 -5 l59 0 1 53 c6 386 5 665 -2 678 -10 20 -113 24 -128 5z"/>
</g>
</svg>
